<?xml version="1.0" encoding="utf-8"?>
<!-- Generator: Adobe Illustrator 24.2.0, SVG Export Plug-In . SVG Version: 6.00 Build 0)  -->
<svg version="1.1" id="Layer_1" xmlns="http://www.w3.org/2000/svg" xmlns:xlink="http://www.w3.org/1999/xlink" x="0px" y="0px"
	 viewBox="0 0 94 79.6" style="enable-background:new 0 0 94 79.6;" xml:space="preserve">
<path d="M89.4,16.1C80.4,13.7,78.7,11.9,76.3,3c-0.2-0.7-0.9-1.2-1.6-1.2S73.2,2.3,73,3c-2.5,8.9-4.2,10.7-13.1,13.1
	c-0.7,0.2-1.2,0.9-1.2,1.6s0.5,1.4,1.2,1.6c8.9,2.5,10.7,4.2,13.1,13.1c0.2,0.7,0.9,1.2,1.6,1.2s1.4-0.5,1.6-1.2
	c2.5-8.9,4.2-10.7,13.1-13.1c0.7-0.2,1.2-0.9,1.2-1.6S90.1,16.3,89.4,16.1L89.4,16.1z"/>
<path d="M74.6,36.9c-2.2,0-4.1-1.5-4.6-3.5c-2.2-7.9-3.1-8.8-10.9-10.9c-2.1-0.6-3.5-2.5-3.5-4.6c0-2.2,1.5-4.1,3.5-4.6
	c1-0.3,2-0.6,2.8-0.8H17.1c-6,0-10.8,4.9-10.8,10.8v31.4c0,6,4.9,10.8,10.8,10.8h6.3V74c0,1.2,0.7,2.4,1.9,2.9
	c0.4,0.2,0.8,0.3,1.3,0.3c0.8,0,1.5-0.3,2.1-0.8l12-10.9h26.6c6,0,10.8-4.9,10.8-10.8V35.4C77.2,36.3,76,36.9,74.6,36.9L74.6,36.9z
	 M54.3,39.6c-7.3,2-8.6,3.3-10.6,10.6c-0.2,0.7-0.8,1.1-1.5,1.1s-1.3-0.5-1.5-1.1c-2-7.3-3.3-8.6-10.6-10.6
	c-0.7-0.2-1.1-0.8-1.1-1.5s0.5-1.3,1.1-1.5c7.3-2,8.6-3.3,10.6-10.6c0.2-0.7,0.8-1.1,1.5-1.1c0.7,0,1.3,0.5,1.5,1.1
	c2,7.3,3.3,8.6,10.6,10.6c0.7,0.2,1.1,0.8,1.1,1.5S55,39.4,54.3,39.6L54.3,39.6z"/>
</svg>
