<?xml version="1.0" encoding="utf-8"?>
<!-- Generator: Adobe Illustrator 24.2.0, SVG Export Plug-In . SVG Version: 6.00 Build 0)  -->
<svg version="1.1" id="Layer_1" xmlns="http://www.w3.org/2000/svg" xmlns:xlink="http://www.w3.org/1999/xlink" x="0px" y="0px"
	 viewBox="0 0 110 96.9" style="enable-background:new 0 0 110 96.9;" xml:space="preserve">
<path d="M96,53h-1V12.5h1c1.4,0,2.5-1.1,2.5-2.5S97.4,7.5,96,7.5H57.5V4.5C57.5,3.1,56.4,2,55,2s-2.5,1.1-2.5,2.5v3.1H13.9
	c-1.4,0-2.5,1.1-2.5,2.5s1.1,2.5,2.5,2.5H15V53h-1.1c-1.4,0-2.5,1.1-2.5,2.5s1.1,2.5,2.5,2.5h38.6v8.6L33.1,89.9
	c-0.9,1.1-0.7,2.6,0.3,3.5c0.5,0.4,1,0.6,1.6,0.6c0.7,0,1.4-0.3,1.9-0.9l15.6-18.7v17.1c0,1.4,1.1,2.5,2.5,2.5s2.5-1.1,2.5-2.5V74.4
	l15.6,18.7c0.5,0.6,1.2,0.9,1.9,0.9c0.6,0,1.1-0.2,1.6-0.6c1.1-0.9,1.2-2.5,0.3-3.5L57.5,66.6V58H96c1.4,0,2.5-1.1,2.5-2.5
	S97.4,53,96,53L96,53z M72.2,34.2c-9.8,3.2-13.1,6.5-16.4,16.4c-0.3,0.8-1.4,0.8-1.7,0c-3.2-9.8-6.5-13.1-16.4-16.4
	c-0.8-0.3-0.8-1.4,0-1.7c9.8-3.2,13.1-6.5,16.4-16.4c0.3-0.8,1.4-0.8,1.7,0c3.2,9.8,6.5,13.1,16.4,16.4C73,32.8,73,33.9,72.2,34.2z
	 M86.9,21.5c-4.9,1.6-6.6,3.3-8.2,8.2c-0.1,0.4-0.7,0.4-0.8,0c-1.6-4.9-3.3-6.6-8.2-8.2c-0.4-0.1-0.4-0.7,0-0.8
	c4.9-1.6,6.6-3.3,8.2-8.2c0.1-0.4,0.7-0.4,0.8,0c1.6,4.9,3.3,6.6,8.2,8.2C87.3,20.8,87.3,21.4,86.9,21.5z"/>
</svg>
